<svg width="24" height="25" viewBox="0 0 24 25" fill="none" xmlns="http://www.w3.org/2000/svg">
<path d="M19.3214 6.09344C19.1695 6.01495 19.0217 5.9289 18.8784 5.83563C18.4618 5.56021 18.0799 5.2357 17.7408 4.86906C16.8923 3.89828 16.5754 2.91344 16.4587 2.22391H16.4634C16.3659 1.65156 16.4062 1.28125 16.4123 1.28125H12.5479V16.2241C12.5479 16.4247 12.5479 16.623 12.5395 16.8189C12.5395 16.8433 12.5372 16.8658 12.5358 16.892C12.5358 16.9028 12.5358 16.9141 12.5334 16.9253V16.9338C12.4927 17.4699 12.3208 17.9878 12.0329 18.4419C11.7451 18.8961 11.35 19.2725 10.8825 19.5381C10.3952 19.8153 9.84414 19.9607 9.28357 19.96C7.4831 19.96 6.02388 18.4919 6.02388 16.6788C6.02388 14.8656 7.4831 13.3975 9.28357 13.3975C9.62439 13.3972 9.96311 13.4508 10.2872 13.5564L10.2918 9.62172C9.30811 9.49465 8.30872 9.57283 7.35671 9.85133C6.4047 10.1298 5.52074 10.6026 4.7606 11.2398C4.09454 11.8186 3.53457 12.5091 3.10591 13.2803C2.94279 13.5616 2.32732 14.6917 2.25279 16.5259C2.20591 17.567 2.51857 18.6456 2.66763 19.0914V19.1008C2.76138 19.3633 3.12466 20.2591 3.71669 21.0142C4.19409 21.62 4.75811 22.1521 5.3906 22.5934V22.5841L5.39997 22.5934C7.27076 23.8647 9.34497 23.7812 9.34497 23.7812C9.70404 23.7667 10.9068 23.7812 12.2728 23.1339C13.7878 22.4163 14.6503 21.347 14.6503 21.347C15.2013 20.7082 15.6394 19.9801 15.9459 19.1941C16.2956 18.2748 16.4123 17.1723 16.4123 16.7317V8.80422C16.4592 8.83234 17.0836 9.24531 17.0836 9.24531C17.0836 9.24531 17.9831 9.82188 19.3865 10.1973C20.3934 10.4645 21.75 10.5208 21.75 10.5208V6.68453C21.2747 6.73609 20.3095 6.58609 19.3214 6.09344Z" fill="#DDDDDD"/>
</svg>
